# xmcd
#
# Track frame offsets:
#	150
#	12854
#	30475
#	50455
#	63555
#	84681
#	101092
#	115221
#	128096
#	142645
#	155512
#	171946
#	186476
#	200466
#
# Disc length: 2915 seconds
#
# Revision: 1
# Processed by: cddbd v1.5.2PL0 Copyright (c) Steve Scherf et al.
# Submitted via: audiograbber 1.83.01
#
DISCID=bc0b610e
DTITLE=Lisa Stanley - Heart and Soul
DYEAR=2017
DGENRE=
TTITLE0=Precious Memories
TTITLE1=Second Violin
TTITLE2=When You Say Nothing At All
TTITLE3=Looking For A Girl
TTITLE4=Always On My Mind
TTITLE5=I Saw The Light In Your Window Tonight
TTITLE6=Cheap Whiskey
TTITLE7=Why Oh Why
TTITLE8=Almost Persuaded
TTITLE9=They Don't Know
TTITLE10=You Don't Know Me
TTITLE11=Safe In The Arms Of Love
TTITLE12=Girl With A Fishing Rod
TTITLE13=Famous In A Small Town
EXTD=
EXTT0=
EXTT1=
EXTT2=
EXTT3=
EXTT4=
EXTT5=
EXTT6=
EXTT7=
EXTT8=
EXTT9=
EXTT10=
EXTT11=
EXTT12=
EXTT13=
PLAYORDER=
